<svg xmlns="http://www.w3.org/2000/svg" xmlns:xlink="http://www.w3.org/1999/xlink" version="1.1" x="0px" y="0px" viewBox="0 0 64 80" style="enable-background:new 0 0 64 64;" xml:space="preserve"><g><path d="M7.99,56.224C8.536,56.717,9.248,57,10,57c1.654,0,3-1.346,3-3c0-0.73-0.27-1.429-0.745-1.971   C10.703,53.289,9.276,54.693,7.99,56.224z"/><path d="M20,30.265v24.779c0,1.078,0.877,1.955,1.955,1.955c1.168,0,2.045-0.877,2.045-1.955V38v-1h2v1v17.044v0.001   C26,56.123,26.877,57,27.955,57c1.166,0,2.043-0.877,2.043-1.955L30,27h2.283l5.529,3.403l0.292-3.798l-6.14-4.093   c-1.377-0.919-2.966-1.415-4.614-1.484l0.678,7.232L25,32.803l-3.029-4.543L22.652,21h-1.821c-2.037,0-4.03-0.564-5.765-1.632   L5.04,13.198C4.829,13.068,4.586,13,4.338,13C3.601,13,3,13.601,3,14.338v0.39c0,0.456,0.229,0.876,0.612,1.125l13.191,8.534   C18.805,25.682,20,27.879,20,30.265z"/><polygon points="24.661,21 24.029,27.74 25,29.197 25.971,27.74 25.339,21 25,21  "/><circle cx="25" cy="13" r="6"/><path d="M38.926,55h0.29c0.481,0,0.887-0.376,0.923-0.854l3.857-50.148C44,3.415,43.584,3,43.074,3h-0.29   c-0.481,0-0.887,0.376-0.923,0.854l-3.857,50.148C38,54.585,38.416,55,38.926,55z"/><path d="M44.96,34.802C45.171,34.932,45.414,35,45.662,35C46.399,35,47,34.399,47,33.662v-0.411c0-0.448-0.223-0.864-0.596-1.113   l-2.441-1.627l-0.27,3.511L44.96,34.802z"/><path d="M56.371,56.651c-1.203-1.482-2.537-2.851-3.984-4.09C52.143,53,52,53.487,52,54c0,1.654,1.346,3,3,3   C55.486,57,55.95,56.871,56.371,56.651z"/><path d="M45.926,5l-0.923,12H61V5H45.926z M51,9h-2V7h2V9z M55,9h-2V7h2V9z M59,9h-2V7h2V9z"/><path d="M55,59c-2.757,0-5-2.243-5-5c0-0.979,0.291-1.906,0.814-2.707c-2.461-1.85-5.193-3.343-8.11-4.405l-0.57,7.411   C42.018,55.813,40.736,57,39.216,57h-0.29C37.312,57,36,55.688,36,54.074c0-0.076,0.003-0.15,0.009-0.227l0.653-8.489   c-1.541-0.231-3.106-0.347-4.663-0.348l-0.001,10.034c0,2.181-1.774,3.955-3.955,3.955c-1.231,0-2.304-0.533-3.039-1.359   c-0.725,0.826-1.776,1.358-2.959,1.358c-2.271,0-4.045-1.774-4.045-3.955v-6.718c-1.453,0.726-2.839,1.561-4.154,2.497   C14.579,51.71,15,52.828,15,54c0,2.757-2.243,5-5,5c-1.205,0-2.348-0.438-3.243-1.202C6.002,58.824,5.287,59.883,4.659,61H59.34   c-0.533-0.947-1.119-1.86-1.746-2.743C56.818,58.733,55.93,59,55,59z M45,59h-2v-2h2V59z M48,54h-2v-2h2V54z"/></g><text x="0" y="79" fill="#000000" font-size="5px" font-weight="bold" font-family="'Helvetica Neue', Helvetica, Arial-Unicode, Arial, Sans-serif">Created by Eucalyp</text><text x="0" y="84" fill="#000000" font-size="5px" font-weight="bold" font-family="'Helvetica Neue', Helvetica, Arial-Unicode, Arial, Sans-serif">from the Noun Project</text></svg>